<?xml version="1.0" encoding="UTF-8" standalone="no"?>
<!DOCTYPE svg PUBLIC "-//W3C//DTD SVG 1.1//EN"
 "http://www.w3.org/Graphics/SVG/1.1/DTD/svg11.dtd">
<!-- Generated by graphviz version 2.40.1 (20161225.0304)
 -->
<!-- Title: G Pages: 1 -->
<svg width="280pt" height="132pt"
 viewBox="0.00 0.00 279.59 132.00" xmlns="http://www.w3.org/2000/svg" xmlns:xlink="http://www.w3.org/1999/xlink">
<g id="graph0" class="graph" transform="scale(1 1) rotate(0) translate(4 128)">
<title>G</title>
<polygon fill="#ffffff" stroke="transparent" points="-4,4 -4,-128 275.5928,-128 275.5928,4 -4,4"/>
<g id="clust1" class="cluster">
<title>cluster_Global</title>
<polygon fill="none" stroke="#000000" points="8,-8 8,-116 270.5928,-116 270.5928,-8 8,-8"/>
<text text-anchor="middle" x="139.2964" y="-103.2" font-family="Times,serif" font-size="11.00" fill="#c0c0c0">Global</text>
</g>
<g id="clust2" class="cluster">
<title>cluster_\DigitalZenWorks</title>
<polygon fill="none" stroke="#000000" points="168.5928,-16 168.5928,-88 262.5928,-88 262.5928,-16 168.5928,-16"/>
<text text-anchor="middle" x="215.5928" y="-75.2" font-family="Times,serif" font-size="11.00" fill="#c0c0c0">DigitalZenWorks</text>
</g>
<!-- \\DigitalZenWorks\\Respimg -->
<g id="node1" class="node">
<title>\\DigitalZenWorks\\Respimg</title>
<polygon fill="none" stroke="#000000" points="247.5928,-60 183.5928,-60 183.5928,-24 247.5928,-24 247.5928,-60"/>
<text text-anchor="middle" x="215.5928" y="-39.2" font-family="Courier,monospace" font-size="11.00" fill="#000000">Respimg</text>
</g>
<!-- Imagick -->
<g id="node2" class="node">
<title>Imagick</title>
<ellipse fill="none" stroke="#000000" cx="56.2964" cy="-42" rx="40.0939" ry="18"/>
<text text-anchor="middle" x="56.2964" y="-38.3" font-family="Times,serif" font-size="14.00" fill="#c0c0c0">Imagick</text>
</g>
<!-- \\DigitalZenWorks\\Respimg&#45;&gt;Imagick -->
<g id="edge1" class="edge">
<title>\\DigitalZenWorks\\Respimg&#45;&gt;Imagick</title>
<path fill="none" stroke="#000000" d="M183.3568,-42C161.3835,-42 131.8407,-42 106.7719,-42"/>
<polygon fill="none" stroke="#000000" points="106.6964,-38.5001 96.6963,-42 106.6963,-45.5001 106.6964,-38.5001"/>
</g>
</g>
</svg>
