<?xml version="1.0" encoding="UTF-8" standalone="no"?>
<!DOCTYPE svg PUBLIC "-//W3C//DTD SVG 1.1//EN"
 "http://www.w3.org/Graphics/SVG/1.1/DTD/svg11.dtd">
<!-- Generated by graphviz version 2.49.1 (20210923.0004)
 -->
<!-- Title: G Pages: 1 -->
<svg width="263pt" height="132pt"
 viewBox="0.00 0.00 263.29 132.00" xmlns="http://www.w3.org/2000/svg" xmlns:xlink="http://www.w3.org/1999/xlink">
<g id="graph0" class="graph" transform="scale(1 1) rotate(0) translate(4 128)">
<title>G</title>
<polygon fill="white" stroke="transparent" points="-4,4 -4,-128 259.29,-128 259.29,4 -4,4"/>
<g id="clust1" class="cluster">
<title>cluster_Global</title>
<polygon fill="none" stroke="black" points="8,-8 8,-116 247.29,-116 247.29,-8 8,-8"/>
<text text-anchor="middle" x="127.65" y="-103.2" font-family="Times New Roman,serif" font-size="11.00" fill="gray">Global</text>
</g>
<g id="clust2" class="cluster">
<title>cluster_\nwtn</title>
<polygon fill="none" stroke="black" points="159.29,-16 159.29,-88 239.29,-88 239.29,-16 159.29,-16"/>
<text text-anchor="middle" x="199.29" y="-75.2" font-family="Times New Roman,serif" font-size="11.00" fill="gray">nwtn</text>
</g>
<!-- \\nwtn\\Respimg -->
<g id="node1" class="node">
<title>\\nwtn\\Respimg</title>
<polygon fill="none" stroke="black" points="231.29,-60 167.29,-60 167.29,-24 231.29,-24 231.29,-60"/>
<text text-anchor="middle" x="199.29" y="-39.2" font-family="Courier,monospace" font-size="11.00">Respimg</text>
</g>
<!-- Imagick -->
<g id="node2" class="node">
<title>Imagick</title>
<ellipse fill="none" stroke="black" cx="55.65" cy="-42" rx="39.79" ry="18"/>
<text text-anchor="middle" x="55.65" y="-38.3" font-family="Times New Roman,serif" font-size="14.00" fill="gray">Imagick</text>
</g>
<!-- \\nwtn\\Respimg&#45;&gt;Imagick -->
<g id="edge1" class="edge">
<title>\\nwtn\\Respimg&#45;&gt;Imagick</title>
<path fill="none" stroke="black" d="M167.21,-42C149.16,-42 126.03,-42 105.6,-42"/>
<polygon fill="none" stroke="black" points="105.5,-38.5 95.5,-42 105.5,-45.5 105.5,-38.5"/>
</g>
</g>
</svg>
